<svg width="1440" height="364" viewBox="0 0 1440 364" fill="none" xmlns="http://www.w3.org/2000/svg">
<path fill-rule="evenodd" clip-rule="evenodd" d="M0 282.09L59.8533 295.463C119.707 308.836 239.413 337.254 360.88 288.776C480.587 241.97 600.293 118.269 720 56.4179C839.707 -3.76119 959.413 -3.76119 1080.88 2.92537C1200.59 9.61194 1320.29 22.9851 1380.15 29.6716L1440 36.3582V364H1380.15C1320.29 364 1200.59 364 1080.88 364C959.413 364 839.707 364 720 364C600.293 364 480.587 364 360.88 364C239.413 364 119.707 364 59.8533 364H0V282.09Z" fill="#FF686B" fill-opacity="0.7"/>
</svg>
