<svg width="38" height="38" viewBox="0 0 38 38" fill="none" xmlns="http://www.w3.org/2000/svg">
<path d="M30.0833 4.75H7.91667C6.16776 4.75 4.75 6.16776 4.75 7.91667V30.0833C4.75 31.8322 6.16776 33.25 7.91667 33.25H30.0833C31.8322 33.25 33.25 31.8322 33.25 30.0833V7.91667C33.25 6.16776 31.8322 4.75 30.0833 4.75Z" stroke="#FEFEFE" stroke-width="2" stroke-linecap="round" stroke-linejoin="round"/>
<path d="M13.4583 15.8333C14.7699 15.8333 15.8333 14.77 15.8333 13.4583C15.8333 12.1467 14.7699 11.0833 13.4583 11.0833C12.1466 11.0833 11.0833 12.1467 11.0833 13.4583C11.0833 14.77 12.1466 15.8333 13.4583 15.8333Z" stroke="#FEFEFE" stroke-width="2" stroke-linecap="round" stroke-linejoin="round"/>
<path d="M33.2501 23.75L25.3334 15.8333L7.91675 33.25" stroke="#FEFEFE" stroke-width="2" stroke-linecap="round" stroke-linejoin="round"/>
</svg>
