<svg width="38" height="38" viewBox="0 0 38 38" fill="none" xmlns="http://www.w3.org/2000/svg">
<path d="M33.5825 25.1592C32.5752 27.5413 30.9997 29.6403 28.9938 31.2729C26.9879 32.9054 24.6125 34.0218 22.0755 34.5242C19.5385 35.0267 16.917 34.9001 14.4402 34.1553C11.9634 33.4106 9.70681 32.0705 7.8676 30.2522C6.02839 28.4339 4.66261 26.1927 3.88966 23.7246C3.11671 21.2565 2.96013 18.6366 3.4336 16.094C3.90707 13.5514 4.99619 11.1635 6.60573 9.13905C8.21526 7.1146 10.2962 5.51525 12.6667 4.48083" stroke="#FEFEFE" stroke-width="2" stroke-linecap="round" stroke-linejoin="round"/>
<path d="M34.8333 19C34.8333 16.9207 34.4238 14.8618 33.6281 12.9408C32.8324 11.0198 31.6661 9.27439 30.1959 7.80413C28.7256 6.33387 26.9801 5.1676 25.0592 4.3719C23.1382 3.5762 21.0793 3.16666 19 3.16666V19H34.8333Z" stroke="#FEFEFE" stroke-width="2" stroke-linecap="round" stroke-linejoin="round"/>
</svg>
