<svg width="42" height="49" viewBox="0 0 42 49" fill="none" xmlns="http://www.w3.org/2000/svg">
<g clip-path="url(#clip0_5_21)">
<path d="M7.5 18.0957V13.5718C7.5 6.07621 13.5469 0 21 0C28.4531 0 34.5 6.07621 34.5 13.5718V18.0957H36C39.3094 18.0957 42 20.8007 42 24.1277V42.2234C42 45.5504 39.3094 48.2553 36 48.2553H6C2.68594 48.2553 0 45.5504 0 42.2234V24.1277C0 20.8007 2.68594 18.0957 6 18.0957H7.5ZM13.5 18.0957H28.5V13.5718C28.5 9.4079 25.1437 6.03192 21 6.03192C16.8563 6.03192 13.5 9.4079 13.5 13.5718V18.0957Z" fill="#FF686B"/>
</g>
<defs>
<clipPath id="clip0_5_21">
<rect width="42" height="48.2553" fill="white"/>
</clipPath>
</defs>
</svg>
